<svg width="226" height="226" viewBox="0 0 226 226" fill="none" xmlns="http://www.w3.org/2000/svg">
<g clip-path="url(#clip0_211_34)">
<path d="M131.529 120.332L193.387 94.1618C195.145 93.4348 196.743 92.3668 198.087 91.0193C199.431 89.6719 200.495 88.0716 201.217 86.311C201.939 84.5503 202.306 82.6641 202.296 80.761C202.286 78.8579 201.899 76.9757 201.157 75.2229C200.416 73.4701 199.335 71.8814 197.977 70.5485C196.618 69.2156 195.009 68.1648 193.243 67.4568C191.476 66.7487 189.587 66.3974 187.684 66.4232C185.781 66.4489 183.902 66.8511 182.156 67.6067L120.298 93.7766L94.1264 31.9234C93.3887 30.1796 92.3148 28.5982 90.9659 27.2695C89.617 25.9408 88.0196 24.8908 86.265 24.1795C84.5103 23.4681 82.6327 23.1093 80.7394 23.1236C78.8461 23.1378 76.9741 23.5249 75.2303 24.2626C71.7087 25.7525 68.9231 28.5803 67.4864 32.124C66.0497 35.6677 66.0796 39.637 67.5695 43.1587L93.7412 105.012L31.7333 131.245C28.2431 132.756 25.4911 135.585 24.077 139.115C22.6629 142.646 22.7011 146.592 24.1833 150.095C25.6656 153.597 28.4718 156.372 31.9907 157.815C35.5096 159.258 39.4561 159.251 42.9705 157.798L104.972 131.567L131.139 193.418C132.691 197.086 135.582 199.778 138.998 201.162C142.414 202.547 146.363 202.629 150.031 201.077C151.775 200.341 153.357 199.267 154.685 197.919C156.014 196.571 157.065 194.973 157.776 193.219C158.487 191.464 158.846 189.587 158.831 187.694C158.816 185.801 158.428 183.929 157.69 182.186L131.529 120.332Z" fill="url(#paint0_linear_211_34)"/>
</g>
<defs>
<linearGradient id="paint0_linear_211_34" x1="139.782" y1="45.7826" x2="85.5576" y2="179.532" gradientUnits="userSpaceOnUse">
<stop stop-color="#52FF00"/>
<stop offset="1" stop-color="#5DFF10"/>
</linearGradient>
<clipPath id="clip0_211_34">
<rect width="173" height="173" fill="white" transform="translate(64.9985) rotate(22.0684)"/>
</clipPath>
</defs>
</svg>
